<svg xmlns="http://www.w3.org/2000/svg" width="82.075" height="82.089" viewBox="0 0 82.075 82.089">
  <g id="baby-boy" transform="translate(-0.045 0)">
    <path id="Path_25" data-name="Path 25" d="M196.86,15.541a2.4,2.4,0,0,1-2.645,2.146,9.111,9.111,0,0,0-10.059,8.143,2.4,2.4,0,0,1-2.643,2.146,13.912,13.912,0,0,1-12.468-14.192,14.1,14.1,0,0,1,4.064-9.6,13.753,13.753,0,0,1,19.756,0A14.114,14.114,0,0,1,196.86,15.541Z" transform="translate(-141.903 0)" fill="#fff"/>
    <path id="Path_26" data-name="Path 26" d="M75.123,118.7a35.509,35.509,0,0,1,0,19.655c4.182-1.977,7-5.641,7-9.827s-2.815-7.85-7-9.828ZM59.641,104.188A7.222,7.222,0,0,1,52.565,110c-.524,0-.86-.066-1.223-.066a4.31,4.31,0,0,0-4.306,3.875,7.216,7.216,0,0,1-7.93,6.441,18.7,18.7,0,0,1-16.6-16.045,30.617,30.617,0,1,0,37.134-.014Zm-33.529,21.5a2.4,2.4,0,1,1-3.4-3.4,8.813,8.813,0,0,1,12.47,0,2.4,2.4,0,0,1-3.4,3.4A4.005,4.005,0,0,0,26.112,125.693ZM49.13,141.769a11.393,11.393,0,0,1-16.094,0,2.4,2.4,0,1,1,3.4-3.4,6.578,6.578,0,0,0,9.294,0,2.4,2.4,0,1,1,3.4,3.4Zm10.415-16.077a2.4,2.4,0,0,1-3.4,0,4.005,4.005,0,0,0-5.667,0,2.4,2.4,0,0,1-3.4-3.4,8.813,8.813,0,0,1,12.47,0A2.4,2.4,0,0,1,59.545,125.693Zm2.645,31.272a35.351,35.351,0,0,1-41.756.335,25.921,25.921,0,0,0-5.245,9.112,2.4,2.4,0,0,0,1.536,3.033c.567.186-2.536.12,48.724.12a2.406,2.406,0,0,0,2.284-3.153,25.944,25.944,0,0,0-5.543-9.447ZM7.042,118.7c-4.182,1.978-7,5.643-7,9.828s2.815,7.85,7,9.827A35.509,35.509,0,0,1,7.042,118.7Z" transform="translate(0 -87.486)" fill="#fff"/>
  </g>
</svg>
