<svg xmlns="http://www.w3.org/2000/svg" width="81.986" height="82" viewBox="0 0 81.986 82">
  <g id="baby-boy" transform="translate(-0.045 0)">
    <path id="Path_25" data-name="Path 25" d="M196.86,15.541a2.4,2.4,0,0,1-2.645,2.146,9.111,9.111,0,0,0-10.059,8.143,2.4,2.4,0,0,1-2.643,2.146,13.912,13.912,0,0,1-12.468-14.192,14.1,14.1,0,0,1,4.064-9.6,13.753,13.753,0,0,1,19.756,0A14.114,14.114,0,0,1,196.86,15.541Z" transform="translate(-141.948 0)" fill="#fff"/>
    <path id="Path_26" data-name="Path 26" d="M75.041,118.679a35.451,35.451,0,0,1,0,19.628c4.178-1.974,6.99-5.633,6.99-9.813s-2.812-7.839-6.99-9.815ZM59.576,104.188a7.213,7.213,0,0,1-7.068,5.8c-.523,0-.859-.066-1.222-.066a4.305,4.305,0,0,0-4.3,3.869,7.208,7.208,0,0,1-7.922,6.432A18.68,18.68,0,0,1,22.482,104.2a30.584,30.584,0,1,0,37.094-.014ZM26.083,125.663a2.4,2.4,0,1,1-3.4-3.4,8.805,8.805,0,0,1,12.456,0,2.4,2.4,0,0,1-3.4,3.4A4,4,0,0,0,26.083,125.663Zm22.993,16.055a11.383,11.383,0,0,1-16.077,0,2.4,2.4,0,1,1,3.4-3.4,6.572,6.572,0,0,0,9.284,0,2.4,2.4,0,1,1,3.4,3.4Zm10.4-16.055a2.4,2.4,0,0,1-3.4,0,4,4,0,0,0-5.661,0,2.4,2.4,0,0,1-3.4-3.4,8.805,8.805,0,0,1,12.456,0A2.4,2.4,0,0,1,59.48,125.663Zm2.642,31.229a35.32,35.32,0,0,1-41.71.335,25.883,25.883,0,0,0-5.239,9.1,2.4,2.4,0,0,0,1.534,3.029c.566.186-2.533.12,48.671.12a2.4,2.4,0,0,0,2.282-3.149,25.907,25.907,0,0,0-5.537-9.434ZM7.035,118.679c-4.178,1.975-6.99,5.635-6.99,9.815s2.812,7.839,6.99,9.813A35.451,35.451,0,0,1,7.035,118.679Z" transform="translate(0 -87.486)" fill="#fff"/>
  </g>
</svg>
