<svg id="school" xmlns="http://www.w3.org/2000/svg" width="82" height="82" viewBox="0 0 82 82">
  <g id="Group_24" data-name="Group 24" transform="translate(44.522 20.962)">
    <g id="Group_23" data-name="Group 23">
      <path id="Path_21" data-name="Path 21" d="M324.415,134.333H298.794l15.732,18.75h21.745v-3.912Z" transform="translate(-298.794 -134.333)" fill="#fff"/>
    </g>
  </g>
  <g id="Group_26" data-name="Group 26" transform="translate(0 20.962)">
    <g id="Group_25" data-name="Group 25">
      <path id="Path_22" data-name="Path 22" d="M11.857,134.333,0,149.171v3.912H21.746l15.732-18.75Z" transform="translate(0 -134.333)" fill="#fff"/>
    </g>
  </g>
  <g id="Group_28" data-name="Group 28">
    <g id="Group_27" data-name="Group 27">
      <path id="Path_23" data-name="Path 23" d="M77.569,77.2V43.4H59.947L43.4,23.684V13.346H57.277V0H38.6V23.684L22.053,43.4H4.431V77.2H0V82H82V77.2ZM12.866,51.25h4.8v6.833h-4.8Zm4.928,20.5h-4.8V64.917h4.8ZM41,33.473A7.527,7.527,0,1,1,33.473,41,7.536,7.536,0,0,1,41,33.473ZM53.652,77.2h-4.8V60.486H43.4V77.2H38.6V60.486H33.152V77.2h-4.8V55.681h25.3ZM69.011,71.75h-4.8V64.917h4.8Zm.123-13.667h-4.8V51.25h4.8Z" fill="#fff"/>
    </g>
  </g>
  <g id="Group_30" data-name="Group 30" transform="translate(38.012 38.012)">
    <g id="Group_29" data-name="Group 29">
      <path id="Path_24" data-name="Path 24" d="M241.988,239a2.988,2.988,0,1,0,2.988,2.988A2.992,2.992,0,0,0,241.988,239Z" transform="translate(-239 -239)" fill="#fff"/>
    </g>
  </g>
</svg>
